<svg width="24" height="30" viewBox="0 0 24 30" xmlns="http://www.w3.org/2000/svg">
<path fill-rule="evenodd" clip-rule="evenodd" d="M12 12C14.7614 12 17 9.76142 17 7C17 4.23858 14.7614 2 12 2C9.23858 2 7 4.23858 7 7C7 9.76142 9.23858 12 12 12ZM12 14C15.866 14 19 10.866 19 7C19 3.13401 15.866 0 12 0C8.13401 0 5 3.13401 5 7C5 10.866 8.13401 14 12 14Z" />
<path fill-rule="evenodd" clip-rule="evenodd" d="M22 18.9997V17.2332C22 15.7759 20.4915 14.8079 19.1667 15.4151L15.7499 16.9811C13.369 18.0723 10.631 18.0723 8.25011 16.9811L4.83331 15.4151C3.50854 14.8079 2 15.7759 2 17.2332V18.9997C2 23.9703 6.02944 27.9997 11 27.9997H13C17.9706 27.9997 22 23.9703 22 18.9997ZM5.66662 13.5969C3.01708 12.3826 0 14.3186 0 17.2332V18.9997C0 25.0749 4.92487 29.9997 11 29.9997H13C19.0751 29.9997 24 25.0749 24 18.9997V17.2332C24 14.3186 20.9829 12.3826 18.3334 13.5969L14.9166 15.163C13.0648 16.0117 10.9352 16.0117 9.08342 15.163L5.66662 13.5969Z" />
<path fill-rule="evenodd" clip-rule="evenodd" d="M13 16V23.5C13 24.0523 12.5523 24.5 12 24.5C11.4477 24.5 11 24.0523 11 23.5V16H13Z" />
</svg>
