<svg width="40" height="40" viewBox="0 0 40 40" fill="none" xmlns="http://www.w3.org/2000/svg">
<rect x="0.5" y="0.5" width="39" height="39" rx="19.5" stroke="#F1F1F1"/>
<path fill-rule="evenodd" clip-rule="evenodd" d="M23.2563 13.5357L14.4757 22.3163C14.0569 22.7351 13.7714 23.2685 13.6553 23.8493L13.2102 26.0744L15.4354 25.6294C16.0161 25.5132 16.5495 25.2278 16.9683 24.809L25.7489 16.0283C26.1395 15.6378 26.1395 15.0047 25.7489 14.6141L24.6705 13.5357C24.28 13.1452 23.6468 13.1452 23.2563 13.5357ZM15.8276 27.5905C16.7955 27.3969 17.6845 26.9212 18.3825 26.2232L27.1631 17.4426C28.3347 16.271 28.3347 14.3715 27.1632 13.1999L26.0847 12.1215C24.9131 10.9499 23.0137 10.9499 21.8421 12.1215L13.0615 20.9021C12.3635 21.6001 11.8877 22.4891 11.6941 23.4571L10.9549 27.153C10.815 27.8528 11.4319 28.4697 12.1316 28.3297L15.8276 27.5905Z" fill="black"/>
<path d="M21.9215 14.5151L24.9316 17.5252" stroke="black" stroke-width="2" stroke-linecap="round"/>
</svg>
