<svg width="28" height="22" viewBox="0 0 28 22" fill="none" xmlns="http://www.w3.org/2000/svg">
<path d="M27.5 10.75C27.5 11.2122 27.1877 12.01 26.4908 13.0015C25.8114 13.9679 24.8189 15.0443 23.5838 16.0497C21.109 18.0645 17.717 19.75 14 19.75C10.283 19.75 6.891 18.0645 4.41617 16.0497C3.18112 15.0443 2.18857 13.9679 1.50924 13.0015C0.812275 12.01 0.5 11.2122 0.5 10.75C0.5 10.15 0.825169 9.28337 1.51231 8.28312C2.18874 7.29847 3.17765 6.24054 4.41031 5.26745C6.87857 3.31896 10.2726 1.75 14 1.75C17.717 1.75 21.109 3.43552 23.5838 5.45025C24.8189 6.4557 25.8114 7.53208 26.4908 8.49848C27.1877 9.48996 27.5 10.2878 27.5 10.75Z" stroke="#231F21"/>
<path d="M18.5 10.75C18.5 13.2353 16.4853 15.25 14 15.25C11.5147 15.25 9.5 13.2353 9.5 10.75C9.5 8.26472 11.5147 6.25 14 6.25C16.4853 6.25 18.5 8.26472 18.5 10.75Z" stroke="#231F21"/>
<path d="M15.5 10.75C15.5 11.5784 14.8284 12.25 14 12.25C13.1716 12.25 12.5 11.5784 12.5 10.75C12.5 9.92157 13.1716 9.25 14 9.25C14.8284 9.25 15.5 9.92157 15.5 10.75Z" stroke="#231F21"/>
<path d="M19 6.25L24.5 0.75" stroke="#231F21" stroke-linecap="round"/>
<path d="M4 21.25L9.5 15.75" stroke="#231F21" stroke-linecap="round"/>
</svg>
