<svg width="118" height="46" viewBox="0 0 118 46" fill="none" xmlns="http://www.w3.org/2000/svg">
<g clip-path="url(#clip0_118_60)">
<path d="M16.4036 22.9805C16.3742 23.3859 16.2517 23.9526 16.0361 24.6903C15.8205 25.428 15.5021 26.1461 15.0807 26.8545C14.6594 27.5629 14.1253 28.1833 13.4737 28.7158C12.822 29.2483 12.0332 29.517 11.1072 29.517C10.1812 29.517 9.49527 29.2581 8.96122 28.7402C8.42717 28.2224 8.02051 27.5091 7.74614 26.6005C7.47177 25.6918 7.29538 24.6024 7.22679 23.3322C7.1533 22.062 7.119 20.6795 7.119 19.1797V18.2075C7.119 17.8167 7.1337 17.4796 7.1631 17.1914C6.81523 17.8265 6.46736 18.6277 6.1195 19.5949C5.77163 20.5622 5.46296 21.593 5.18859 22.6873C4.91422 23.7816 4.68884 24.9004 4.51736 26.0435C4.34587 27.1818 4.24298 28.2566 4.21359 29.2678C3.92451 29.3265 3.61094 29.3997 3.28268 29.4828C2.94951 29.5707 2.56735 29.6147 2.13129 29.6147C1.95981 29.6147 1.75403 29.6 1.52375 29.5707C1.29347 29.5414 1.0583 29.4828 0.828019 29.3949C0.597741 29.3069 0.401761 29.1848 0.240076 29.0285C0.0783923 28.8721 0 28.6621 0 28.3983C0 28.3396 0.0489952 28.2126 0.151885 28.0074C0.254775 27.8071 0.30377 27.4017 0.30377 26.7959V1.90527C0.30377 1.49979 0.254775 1.22621 0.151885 1.08453C0.0489952 0.942861 0 0.76699 0 0.566692C0 0.454331 0.10289 0.356624 0.30377 0.28823C0.50465 0.214951 0.739827 0.156327 0.999502 0.112359C1.25918 0.0683917 1.52865 0.0390799 1.80302 0.024424C2.0774 0.00976811 2.30277 0.00488281 2.47426 0.00488281C3.22388 0.00488281 3.99311 0.161212 4.77213 0.478757C4.62515 1.25552 4.48796 2.2912 4.36057 3.57115C4.22828 4.85599 4.1058 6.18479 3.99311 7.55267C3.87552 8.92056 3.79223 10.2347 3.73343 11.4902C3.67464 12.7457 3.64524 13.7179 3.64524 14.4116V14.7341C3.64524 14.866 3.63544 15.1982 3.62564 15.7307C3.61095 16.2632 3.59625 17.0937 3.58155 18.2173C3.56685 19.3409 3.54235 20.9286 3.51785 22.9756C3.51785 22.9463 3.58155 22.6727 3.71384 22.1548C3.84612 21.637 4.00781 20.9873 4.21359 20.2105C4.41447 19.4288 4.65454 18.5935 4.92892 17.6994C5.20329 16.8054 5.49236 15.9749 5.79613 15.2128C6.0999 14.4507 6.40857 13.8156 6.72704 13.3076C7.04551 12.8044 7.34928 12.5503 7.63835 12.5503C7.95682 12.5503 8.39777 12.6138 8.96122 12.7457C9.52466 12.8777 9.87743 13.0975 10.0244 13.415C10.1371 13.7619 10.2645 14.0062 10.3919 14.1527C10.5242 14.2993 10.6369 14.4116 10.7397 14.4996C10.8426 14.5875 10.9259 14.6706 10.9994 14.7585C11.0729 14.8464 11.1072 14.9734 11.1072 15.1493C11.0778 15.2373 11.0141 15.5255 10.9112 16.014C10.8083 16.5074 10.7103 17.1181 10.6075 17.8558C10.5046 18.5935 10.4115 19.3995 10.3233 20.2789C10.2351 21.1582 10.191 22.0327 10.191 22.8974C10.191 24.0503 10.2939 25.0469 10.4948 25.8823C10.6956 26.7177 11.0876 27.1378 11.6658 27.1378C12.2439 27.1378 12.724 26.9669 13.0964 26.62C13.4737 26.2731 13.7823 25.8384 14.0273 25.3205C14.2723 24.8027 14.4634 24.2457 14.5908 23.6546C14.7231 23.0635 14.8308 22.5359 14.9141 22.0767C15.0562 21.4709 15.2767 21.168 15.5658 21.168C15.8842 21.168 16.1096 21.2853 16.237 21.5149C16.3644 21.7445 16.433 22.0474 16.433 22.4235L16.3889 22.9853L16.4036 22.9805Z" fill="#231F21"/>
<path d="M27.2562 22.4575C27.2562 23.1805 27.1239 23.9866 26.8642 24.8806C26.6045 25.7746 26.1979 26.6051 25.6491 27.3672C25.1004 28.1342 24.3948 28.7742 23.5423 29.292C22.6898 29.8099 21.6707 30.0688 20.485 30.0688C19.2993 30.0688 18.4027 29.8685 17.6188 29.463C16.8349 29.0575 16.193 28.5104 15.6884 27.8167C15.1837 27.1229 14.8212 26.3071 14.6056 25.3691C14.39 24.4311 14.2822 23.4443 14.2822 22.4037C14.2822 21.3632 14.3998 20.2835 14.6301 19.072C14.8604 17.8604 15.2229 16.727 15.7129 15.6767C16.2028 14.6263 16.8251 13.7421 17.5796 13.0386C18.3341 12.3303 19.2454 11.9785 20.3135 11.9785C20.8329 11.9785 21.3277 12.086 21.7883 12.3058C22.2488 12.5208 22.6555 12.8041 23.0034 13.151C23.3512 13.4978 23.6256 13.9033 23.8265 14.3625C24.0274 14.8266 24.145 15.3005 24.1744 15.7891L24.2185 16.3948C24.2185 17.0885 24.1009 17.8458 23.8706 18.6665C23.6403 19.4872 23.3071 20.2542 22.8711 20.9577C22.435 21.6661 21.901 22.2572 21.264 22.7311C20.6271 23.2049 19.902 23.4443 19.0936 23.4443C18.9466 23.4443 18.7702 23.4297 18.5497 23.4004C18.3341 23.371 18.1235 23.3271 17.9226 23.2684V24.524C17.9226 24.7243 17.9863 25.0125 18.1185 25.3887C18.2508 25.7648 18.4468 26.1312 18.7065 26.4927C18.9662 26.8543 19.3042 27.1718 19.7256 27.4454C20.1469 27.719 20.6614 27.8557 21.264 27.8557C22.1019 27.8557 22.7878 27.6896 23.3267 27.3574C23.8608 27.0252 24.3017 26.6002 24.6496 26.0824C24.9975 25.5645 25.262 24.9783 25.4531 24.3286C25.6393 23.6788 25.7912 23.0535 25.9088 22.4477C25.997 22.0422 26.0803 21.7687 26.1685 21.627C26.2566 21.4853 26.3987 21.412 26.6045 21.412C27.0406 21.412 27.2562 21.6563 27.2562 22.1497V22.4526V22.4575ZM22.1362 15.75C22.1362 15.5204 22.0725 15.2761 21.9402 15.0123C21.8079 14.7485 21.5727 14.6215 21.2248 14.6215C20.7055 14.6215 20.2547 14.895 19.8775 15.4422C19.5002 15.9893 19.1915 16.6196 18.9466 17.323C18.7016 18.0314 18.5203 18.7056 18.4027 19.3553C18.2851 20.0051 18.2312 20.4301 18.2312 20.6304V20.7623C18.2312 21.0212 18.2508 21.2313 18.2949 21.3925C18.339 21.5537 18.4909 21.6319 18.7506 21.6319H18.9662C19.5443 21.6319 20.0343 21.4169 20.4409 20.9821C20.8476 20.5473 21.1709 20.0295 21.4159 19.4237C21.6609 18.8179 21.8422 18.1975 21.9598 17.5624C22.0774 16.9273 22.1313 16.4095 22.1313 16.004V15.7451L22.1362 15.75Z" fill="#231F21"/>
<path d="M39.3627 28.8624C39.3627 29.092 39.3039 29.2532 39.1912 29.3362C39.0736 29.4242 38.9463 29.4779 38.7993 29.5072C38.6523 29.5365 38.5004 29.5561 38.3436 29.5707C38.1819 29.5854 38.0741 29.6343 38.0153 29.7222V36.6007C38.0153 37.1478 38.0105 37.7487 37.9958 38.3985C37.9811 39.0482 37.9174 39.6882 37.7998 40.3233C37.6822 40.9584 37.5009 41.5495 37.2559 42.0967C37.0109 42.6438 36.6533 43.0933 36.1878 43.4401C36.1584 43.4694 36.0653 43.5329 35.9037 43.6355C35.742 43.7381 35.5705 43.8505 35.3794 43.9824C35.1883 44.1143 35.0119 44.2364 34.8356 44.3488C34.6592 44.466 34.5465 44.5344 34.4877 44.5637C34.081 44.8227 33.7528 45.1255 33.5078 45.4724C33.2628 45.8193 32.9492 45.9902 32.572 45.9902C32.425 45.9902 32.3172 45.9805 32.2437 45.9707C32.1702 45.956 32.0967 45.9365 32.0281 45.9072C31.9546 45.8779 31.8518 45.8437 31.7244 45.7997C31.5921 45.7557 31.4108 45.7069 31.1805 45.6483C29.8723 45.3893 28.9659 45.0083 28.4564 44.5002C27.9468 43.9921 27.6921 43.1812 27.6921 42.0576C27.6921 40.934 27.8635 39.7077 28.2114 38.4669C28.5593 37.226 29.0345 36.0291 29.6421 34.8762C30.2496 33.7232 30.9747 32.6485 31.8126 31.6519C32.6504 30.6553 33.5617 29.815 34.5465 29.1213V23.5814C34.3995 24.1285 34.228 24.7636 34.0271 25.4866C33.8263 26.2097 33.5715 26.8838 33.2677 27.5189C32.9639 28.154 32.6112 28.6865 32.2045 29.1213C31.7979 29.5561 31.3226 29.771 30.7739 29.771C30.2839 29.771 29.745 29.5952 29.1668 29.2532C28.5887 28.9063 28.0644 28.5595 27.6039 28.2175C27.256 27.9293 26.9816 27.4749 26.7808 26.8545C26.5799 26.2341 26.428 25.5794 26.3251 24.8857C26.2222 24.192 26.1585 23.5276 26.1291 22.8925C26.0997 22.2574 26.085 21.7982 26.085 21.51C26.085 20.3864 26.0997 19.209 26.1291 17.9828C26.1585 16.7566 26.232 15.6232 26.3496 14.5875C26.4672 13.547 26.6436 12.692 26.8787 12.013C27.1139 11.3339 27.4226 10.9968 27.7999 10.9968C27.9174 10.9968 28.1526 11.0261 28.5005 11.0848C28.8532 11.1434 29.2158 11.2362 29.598 11.3681C29.9801 11.5 30.3084 11.671 30.5975 11.886C30.8865 12.1009 31.0335 12.3696 31.0335 12.6871C31.0335 12.7751 30.9943 12.8386 30.9257 12.8826C30.8523 12.9265 30.7886 12.9754 30.7298 13.034C30.5583 13.1512 30.3966 13.376 30.2545 13.7033C30.1075 14.0355 29.985 14.5094 29.887 15.1298C29.7842 15.7502 29.7058 16.5563 29.647 17.5529C29.5882 18.5495 29.5588 19.7659 29.5588 21.212C29.5588 23.3762 29.6372 24.9199 29.7989 25.8433C29.9556 26.7666 30.2839 27.2307 30.7739 27.2307C31.2932 27.2307 31.7636 26.8399 32.1849 26.0631C32.6063 25.2863 32.9884 24.2604 33.3363 22.9902C33.6842 21.7201 34.0026 20.2789 34.2917 18.6619C34.5808 17.0448 34.8405 15.418 35.0707 13.7717C35.3598 13.7717 35.6832 13.7863 36.0457 13.8156C36.4083 13.845 36.7562 13.9036 37.0893 13.9915C37.4225 14.0795 37.7018 14.1869 37.937 14.3139C38.1672 14.4458 38.2848 14.6217 38.2848 14.8562C38.2848 14.9979 38.1966 15.1005 38.0251 15.1591V27.9684C38.3436 27.9977 38.6474 28.0612 38.9365 28.1638C39.2255 28.2664 39.3725 28.5057 39.3725 28.877L39.3627 28.8624ZM34.5465 30.9826C33.8508 31.5297 33.2285 32.2381 32.6798 33.1028C32.131 33.9675 31.6607 34.8811 31.2687 35.8484C30.8767 36.8156 30.5828 37.7732 30.377 38.7258C30.1761 39.6784 30.0732 40.4992 30.0732 41.1929C30.0732 41.3345 30.0781 41.5739 30.0928 41.9061C30.1075 42.2383 30.1712 42.5608 30.2888 42.8783C30.4064 43.1958 30.573 43.4792 30.7886 43.7235C31.0041 43.9677 31.3324 44.0899 31.7636 44.0899C32.4005 44.0899 32.9003 43.7528 33.2628 43.0737C33.6254 42.3947 33.8998 41.6032 34.0859 40.6946C34.2721 39.7859 34.3946 38.8772 34.4534 37.9686C34.5122 37.0599 34.5416 36.3906 34.5416 35.9558V30.9777L34.5465 30.9826Z" fill="#231F21"/>
<path d="M57.9809 21.7249C57.9221 22.36 57.7996 23.0831 57.6134 23.8891C57.4272 24.6952 57.148 25.4622 56.7903 26.1803C56.4278 26.9034 55.9525 27.5091 55.3597 27.9977C54.7668 28.4911 54.0515 28.7353 53.2137 28.7353C51.9692 28.7353 51.0677 28.4471 50.4993 27.8706C49.9359 27.2942 49.4655 26.4002 49.0883 25.1886L49.0442 25.4036C48.9266 25.8677 48.7894 26.3709 48.6326 26.918C48.4709 27.4652 48.2554 27.9635 47.981 28.4129C47.7066 28.8624 47.3636 29.2336 46.9619 29.5365C46.5552 29.8394 46.0359 29.9909 45.3989 29.9909C44.9629 29.9909 44.5366 29.9127 44.1202 29.7515C43.6988 29.5903 43.2578 29.3997 42.7973 29.1653C42.131 28.8184 41.6116 28.3592 41.2343 27.7778C40.8571 27.2014 40.5827 26.6102 40.4112 26.0045C40.2397 25.3987 40.1368 24.8125 40.1075 24.2506C40.0781 23.6888 40.0634 23.2492 40.0634 22.9316V22.1939C40.0634 22.0181 40.1075 21.6468 40.1956 21.0703C40.2838 20.4938 40.421 19.8246 40.6072 19.0576C40.7934 18.2955 41.0237 17.4943 41.3029 16.654C41.5773 15.8186 41.9105 15.0516 42.3024 14.3579C42.6944 13.6642 43.1403 13.0877 43.6498 12.6285C44.1545 12.1644 44.7277 11.9348 45.3646 11.9348C46.0604 11.9348 46.7316 12.052 47.3832 12.2817C48.0349 12.5113 48.5052 12.6871 48.7943 12.7995C48.8237 12.2817 48.8433 11.6466 48.858 10.8942C48.8727 10.1419 48.8874 9.39932 48.9021 8.66653C48.9168 7.92885 48.9217 7.24491 48.9217 6.60982V5.18331C48.9217 4.43097 48.907 3.791 48.8776 3.2585C48.8482 2.726 48.7992 2.27167 48.7257 1.8955C48.6522 1.51933 48.5738 1.21644 48.4856 0.986836C48.3974 0.757227 48.2994 0.552044 48.1819 0.381058C48.6718 0.239385 49.1569 0.136793 49.637 0.0781698C50.1123 0.0195462 50.5532 -0.00976562 50.9599 -0.00976562C51.6262 -0.00976562 52.1407 0.0390874 52.4983 0.141679C52.8609 0.24427 53.0422 0.49342 53.0422 0.8989C53.0422 1.07477 52.9981 1.57796 52.9099 2.41334C52.8217 3.24873 52.7384 4.33815 52.6502 5.68161C52.562 7.02507 52.4787 8.57371 52.3905 10.3324C52.3024 12.0911 52.2583 13.9671 52.2583 15.9603V20.3326C52.2583 21.1387 52.273 21.9106 52.3024 22.6483C52.3318 23.3859 52.3954 24.0308 52.4983 24.5975C52.6012 25.1593 52.7531 25.6088 52.954 25.941C53.1549 26.2732 53.4439 26.4393 53.8212 26.4393C54.659 26.4393 55.2911 25.9556 55.7075 24.9883C56.1289 24.021 56.4669 22.5017 56.7266 20.4206C56.756 20.191 56.8148 19.9907 56.8981 19.8148C56.9814 19.6389 57.1725 19.5559 57.4615 19.5559C57.7212 19.5559 57.8878 19.722 57.9613 20.0542C58.0348 20.3864 58.0544 20.7088 58.025 21.0263L57.9809 21.7201V21.7249ZM48.8237 15.4522C48.8237 15.3643 48.76 15.2666 48.6277 15.1493C48.5003 15.037 48.3386 14.9197 48.1525 14.8025C47.9663 14.6901 47.7703 14.5875 47.5694 14.4996C47.3685 14.4116 47.1971 14.3677 47.055 14.3677C46.4817 14.3677 45.9722 14.7194 45.5263 15.4278C45.0805 16.1362 44.7081 17.0057 44.4043 18.0463C44.1055 19.082 43.8801 20.1958 43.738 21.3781C43.5959 22.5603 43.5224 23.6156 43.5224 24.5389C43.5224 24.8857 43.5371 25.2912 43.5665 25.7504C43.5959 26.2145 43.6645 26.6444 43.7821 27.0499C43.8948 27.4554 44.0565 27.8023 44.2573 28.0905C44.4582 28.3787 44.7326 28.5204 45.0756 28.5204C45.4479 28.5204 45.7909 28.3054 46.1094 27.8706C46.4229 27.4359 46.712 26.874 46.9717 26.1803C47.2314 25.4866 47.4665 24.7099 47.6821 23.8452C47.8977 22.9805 48.0839 22.1206 48.2407 21.2706C48.3974 20.4206 48.5199 19.6096 48.6081 18.8475C48.6963 18.0854 48.7502 17.4698 48.7796 17.0057L48.8237 15.4473V15.4522Z" fill="#231F21"/>
<path d="M73.6055 24.407C73.5467 24.8125 73.4046 25.2863 73.1694 25.8335C72.9391 26.3806 72.6403 26.9082 72.2777 27.4114C71.9151 27.9146 71.4987 28.3396 71.0185 28.6865C70.5433 29.0334 70.0141 29.2043 69.436 29.2043C68.5688 29.2043 67.8093 28.8721 67.1577 28.2077C66.5061 27.5433 66.1092 26.6054 65.9622 25.3938C65.7907 25.8579 65.585 26.3904 65.3547 26.9962C65.1244 27.602 64.8353 28.1638 64.4875 28.6865C64.1396 29.2043 63.7427 29.644 63.292 30.0055C62.8412 30.367 62.317 30.5478 61.7094 30.5478C61.538 30.5478 61.4057 30.5331 61.3175 30.5038C61.2293 30.4745 61.1362 30.4403 61.0333 30.3964C60.9304 30.3524 60.8177 30.3182 60.6854 30.2889C60.5532 30.2596 60.3719 30.2449 60.1416 30.2449C59.4459 30.2449 58.8628 30.0202 58.3827 29.5756C57.9074 29.1262 57.5203 28.5595 57.2313 27.8658C56.9422 27.1721 56.7315 26.4148 56.5992 25.5941C56.467 24.7734 56.4033 24.0015 56.4033 23.2785C56.4033 21.5491 56.4963 19.9027 56.6874 18.3443C56.8736 16.7859 57.1872 15.4082 57.6183 14.2113C58.0544 13.0144 58.6178 12.0618 59.3087 11.3534C60.0044 10.6451 60.8422 10.2933 61.827 10.2933C62.4052 10.2933 62.8461 10.3422 63.1499 10.4448C63.4537 10.5474 63.7378 10.6597 63.9975 10.7916C64.2572 10.9235 64.5414 11.0603 64.8451 11.202C65.1489 11.3486 65.5752 11.4609 66.1239 11.5489C66.7314 11.8957 67.1577 12.3061 67.4027 12.7848C67.6477 13.2587 67.8093 13.7717 67.8779 14.3188C67.9514 14.866 67.971 15.4376 67.9416 16.0287C67.9122 16.6198 67.9416 17.206 68.0298 17.7825C68.0298 17.8118 68.0935 17.8558 68.2258 17.9144C68.3581 17.973 68.51 18.0365 68.6814 18.1098C68.8529 18.1831 69.0048 18.2808 69.1371 18.4127C69.2694 18.5446 69.3331 18.7107 69.3331 18.911V19.082C69.044 19.8343 68.8676 20.4938 68.8137 21.0752C68.7549 21.6517 68.7255 22.3454 68.7255 23.1514C68.7255 23.5569 68.7451 23.9966 68.7892 24.4705C68.8333 24.9444 68.9068 25.3938 69.0048 25.8139C69.1077 26.2341 69.2596 26.576 69.4605 26.8496C69.6614 27.1232 69.921 27.26 70.2395 27.26C70.5874 27.26 70.896 27.089 71.1753 26.7421C71.4497 26.3953 71.68 25.9996 71.871 25.5501C72.0572 25.1007 72.2189 24.6463 72.3463 24.1871C72.4786 23.7279 72.557 23.3811 72.5864 23.1514C72.6452 22.8046 72.7872 22.6336 73.0224 22.6336C73.1645 22.6336 73.3066 22.7118 73.434 22.873C73.5614 23.0342 73.63 23.3127 73.63 23.7181V24.0406C73.63 24.1432 73.6153 24.2653 73.5859 24.407H73.6055ZM65.5752 17.3966C65.5752 17.079 65.5458 16.7029 65.487 16.2729C65.4282 15.843 65.3253 15.4376 65.1832 15.0614C65.0362 14.6852 64.8206 14.3677 64.5316 14.1088C64.2425 13.8498 63.8505 13.7179 63.3606 13.7179C62.5522 13.7179 61.8907 14.0843 61.3861 14.822C60.8814 15.5597 60.4797 16.4244 60.1906 17.4161C59.9015 18.4127 59.7153 19.4337 59.6271 20.489C59.5389 21.5442 59.4949 22.3698 59.4949 22.9756C59.4949 23.4397 59.5145 23.9917 59.5585 24.6415C59.6026 25.2912 59.681 25.9019 59.7986 26.4832C59.9162 27.0597 60.0828 27.5531 60.2984 27.9537C60.514 28.3592 60.7981 28.5595 61.146 28.5595C61.9838 28.5595 62.6305 28.237 63.0764 27.5873C63.5223 26.9376 63.8652 26.1315 64.0955 25.1642C64.3258 24.1969 64.4924 23.1612 64.5953 22.0474C64.6981 20.9384 64.7912 19.9223 64.8794 18.9989C64.9382 18.5104 65.0656 18.1978 65.2714 18.0707C65.4723 17.9388 65.5752 17.846 65.5752 17.7874V17.3966Z" fill="#231F21"/>
<path d="M90.009 21.7249C89.9502 22.36 89.8278 23.0831 89.6416 23.8891C89.4554 24.6952 89.1761 25.4622 88.8184 26.1803C88.4559 26.9034 87.9806 27.5091 87.3878 27.9977C86.7949 28.4911 86.0796 28.7353 85.2418 28.7353C83.9973 28.7353 83.0958 28.4471 82.5275 27.8706C81.964 27.2942 81.4937 26.4002 81.1164 25.1886L81.0723 25.4036C80.9547 25.8677 80.8175 26.3709 80.6608 26.918C80.4991 27.4652 80.2835 27.9635 80.0091 28.4129C79.7347 28.8624 79.3918 29.2336 78.99 29.5365C78.5834 29.8394 78.064 29.9909 77.4271 29.9909C76.991 29.9909 76.5648 29.9127 76.1483 29.7515C75.7269 29.5903 75.286 29.3997 74.8254 29.1653C74.1591 28.8184 73.6397 28.3592 73.2625 27.7778C72.8852 27.2014 72.6108 26.6102 72.4394 26.0045C72.2679 25.3987 72.165 24.8125 72.1356 24.2506C72.1062 23.6888 72.0915 23.2492 72.0915 22.9316V22.1939C72.0915 22.0181 72.1356 21.6468 72.2238 21.0703C72.312 20.4938 72.4492 19.8246 72.6353 19.0576C72.8215 18.2955 73.0518 17.4943 73.3311 16.654C73.6054 15.8186 73.9386 15.0516 74.3306 14.3579C74.7225 13.6642 75.1684 13.0877 75.6779 12.6285C76.1826 12.1644 76.7558 11.9348 77.3928 11.9348C78.0885 11.9348 78.7597 12.052 79.4114 12.2817C80.063 12.5113 80.5334 12.6871 80.8224 12.7995C80.8518 12.2817 80.8714 11.6466 80.8861 10.8942C80.9008 10.1419 80.9155 9.39932 80.9302 8.66653C80.9449 7.92885 80.9498 7.24491 80.9498 6.60982V5.18331C80.9498 4.43097 80.9351 3.791 80.9057 3.2585C80.8763 2.726 80.8273 2.27167 80.7538 1.8955C80.6804 1.51933 80.602 1.21644 80.5138 0.986836C80.4256 0.757227 80.3276 0.552044 80.21 0.381058C80.7 0.239385 81.185 0.136793 81.6651 0.0781698C82.1404 0.0195462 82.5814 -0.00976562 82.988 -0.00976562C83.6544 -0.00976562 84.1688 0.0390874 84.5265 0.141679C84.889 0.24427 85.0703 0.49342 85.0703 0.8989C85.0703 1.07477 85.0262 1.57796 84.938 2.41334C84.8498 3.24873 84.7665 4.33815 84.6784 5.68161C84.5902 7.02507 84.5069 8.57371 84.4187 10.3324C84.3305 12.0911 84.2864 13.9671 84.2864 15.9603V20.3326C84.2864 21.1387 84.3011 21.9106 84.3305 22.6483C84.3599 23.3859 84.4236 24.0308 84.5265 24.5975C84.6294 25.1593 84.7812 25.6088 84.9821 25.941C85.183 26.2732 85.4721 26.4393 85.8493 26.4393C86.6872 26.4393 87.3192 25.9556 87.7357 24.9883C88.157 24.021 88.4951 22.5017 88.7548 20.4206C88.7841 20.191 88.8429 19.9907 88.9262 19.8148C89.0095 19.6389 89.2006 19.5559 89.4897 19.5559C89.7494 19.5559 89.9159 19.722 89.9894 20.0542C90.0629 20.3864 90.0825 20.7088 90.0531 21.0263L90.009 21.7201V21.7249ZM80.8518 15.4522C80.8518 15.3643 80.7881 15.2666 80.6558 15.1493C80.5285 15.037 80.3668 14.9197 80.1806 14.8025C79.9944 14.6901 79.7984 14.5875 79.5976 14.4996C79.3967 14.4116 79.2252 14.3677 79.0831 14.3677C78.5099 14.3677 78.0003 14.7194 77.5545 15.4278C77.1086 16.1362 76.7362 17.0057 76.4325 18.0463C76.1336 19.082 75.9082 20.1958 75.7661 21.3781C75.624 22.5603 75.5506 23.6156 75.5506 24.5389C75.5506 24.8857 75.5652 25.2912 75.5946 25.7504C75.624 26.2145 75.6926 26.6444 75.8102 27.0499C75.9229 27.4554 76.0846 27.8023 76.2855 28.0905C76.4864 28.3787 76.7607 28.5204 77.1037 28.5204C77.4761 28.5204 77.819 28.3054 78.1375 27.8706C78.4511 27.4359 78.7401 26.874 78.9998 26.1803C79.2595 25.4866 79.4947 24.7099 79.7102 23.8452C79.9258 22.9805 80.112 22.1206 80.2688 21.2706C80.4256 20.4206 80.5481 19.6096 80.6363 18.8475C80.7244 18.0854 80.7783 17.4698 80.8077 17.0057L80.8518 15.4473V15.4522Z" fill="#231F21"/>
<path d="M106.285 21.7249C106.226 22.36 106.104 23.0831 105.918 23.8891C105.732 24.6952 105.452 25.4622 105.095 26.1803C104.732 26.9034 104.257 27.5091 103.664 27.9977C103.071 28.4911 102.356 28.7353 101.518 28.7353C100.274 28.7353 99.3721 28.4471 98.8037 27.8706C98.2403 27.2942 97.7699 26.4002 97.3926 25.1886L97.3486 25.4036C97.231 25.8677 97.0938 26.3709 96.937 26.918C96.7753 27.4652 96.5597 27.9635 96.2854 28.4129C96.011 28.8624 95.668 29.2336 95.2663 29.5365C94.8596 29.8394 94.3403 29.9909 93.7033 29.9909C93.2673 29.9909 92.841 29.9127 92.4245 29.7515C92.0032 29.5903 91.5622 29.3997 91.1017 29.1653C90.4353 28.8184 89.916 28.3592 89.5387 27.7778C89.1615 27.2014 88.8871 26.6102 88.7156 26.0045C88.5441 25.3987 88.4412 24.8125 88.4118 24.2506C88.3824 23.6888 88.3677 23.2492 88.3677 22.9316V22.1939C88.3677 22.0181 88.4118 21.6468 88.5 21.0703C88.5882 20.4938 88.7254 19.8246 88.9116 19.0576C89.0978 18.2955 89.328 17.4943 89.6073 16.654C89.8817 15.8186 90.2149 15.0516 90.6068 14.3579C90.9988 13.6642 91.4446 13.0877 91.9542 12.6285C92.4588 12.1644 93.0321 11.9348 93.669 11.9348C94.3647 11.9348 95.036 12.052 95.6876 12.2817C96.3393 12.5113 96.8096 12.6871 97.0987 12.7995C97.1281 12.2817 97.1477 11.6466 97.1624 10.8942C97.1771 10.1419 97.1918 9.39932 97.2065 8.66653C97.2212 7.92885 97.2261 7.24491 97.2261 6.60982V5.18331C97.2261 4.43097 97.2114 3.791 97.182 3.2585C97.1526 2.726 97.1036 2.27167 97.0301 1.8955C96.9566 1.51933 96.8782 1.21644 96.79 0.986836C96.7018 0.757227 96.6038 0.552044 96.4862 0.381058C96.9762 0.239385 97.4612 0.136793 97.9414 0.0781698C98.4166 0.0195462 98.8576 -0.00976562 99.2643 -0.00976562C99.9306 -0.00976562 100.445 0.0390874 100.803 0.141679C101.165 0.24427 101.347 0.49342 101.347 0.8989C101.347 1.07477 101.302 1.57796 101.214 2.41334C101.126 3.24873 101.043 4.33815 100.955 5.68161C100.866 7.02507 100.783 8.57371 100.695 10.3324C100.607 12.0911 100.563 13.9671 100.563 15.9603V20.3326C100.563 21.1387 100.577 21.9106 100.607 22.6483C100.636 23.3859 100.7 24.0308 100.803 24.5975C100.906 25.1593 101.057 25.6088 101.258 25.941C101.459 26.2732 101.748 26.4393 102.126 26.4393C102.963 26.4393 103.595 25.9556 104.012 24.9883C104.433 24.021 104.771 22.5017 105.031 20.4206C105.06 20.191 105.119 19.9907 105.202 19.8148C105.286 19.6389 105.477 19.5559 105.766 19.5559C106.026 19.5559 106.192 19.722 106.266 20.0542C106.339 20.3864 106.359 20.7088 106.329 21.0263L106.285 21.7201V21.7249ZM97.1281 15.4522C97.1281 15.3643 97.0644 15.2666 96.9321 15.1493C96.8047 15.037 96.643 14.9197 96.4568 14.8025C96.2707 14.6901 96.0747 14.5875 95.8738 14.4996C95.6729 14.4116 95.5014 14.3677 95.3594 14.3677C94.7861 14.3677 94.2766 14.7194 93.8307 15.4278C93.3848 16.1362 93.0125 17.0057 92.7087 18.0463C92.4098 19.082 92.1845 20.1958 92.0424 21.3781C91.9003 22.5603 91.8268 23.6156 91.8268 24.5389C91.8268 24.8857 91.8415 25.2912 91.8709 25.7504C91.9003 26.2145 91.9689 26.6444 92.0865 27.0499C92.1992 27.4554 92.3608 27.8023 92.5617 28.0905C92.7626 28.3787 93.037 28.5204 93.3799 28.5204C93.7523 28.5204 94.0953 28.3054 94.4137 27.8706C94.7273 27.4359 95.0164 26.874 95.2761 26.1803C95.5357 25.4866 95.7709 24.7099 95.9865 23.8452C96.2021 22.9805 96.3883 22.1206 96.545 21.2706C96.7018 20.4206 96.8243 19.6096 96.9125 18.8475C97.0007 18.0854 97.0546 17.4698 97.084 17.0057L97.1281 15.4473V15.4522Z" fill="#231F21"/>
<path d="M118 28.8624C118 29.092 117.941 29.2532 117.829 29.3362C117.711 29.4242 117.584 29.4779 117.437 29.5072C117.29 29.5365 117.138 29.5561 116.981 29.5707C116.819 29.5854 116.711 29.6343 116.653 29.7222V36.6007C116.653 37.1478 116.648 37.7487 116.633 38.3985C116.618 39.0482 116.555 39.6882 116.437 40.3233C116.319 40.9584 116.138 41.5495 115.893 42.0967C115.648 42.6438 115.291 43.0933 114.825 43.4401C114.796 43.4694 114.703 43.5329 114.541 43.6355C114.379 43.7381 114.208 43.8505 114.017 43.9824C113.826 44.1143 113.649 44.2364 113.473 44.3488C113.296 44.466 113.184 44.5344 113.125 44.5637C112.718 44.8227 112.39 45.1255 112.145 45.4724C111.9 45.8193 111.587 45.9902 111.209 45.9902C111.062 45.9902 110.954 45.9805 110.881 45.9707C110.807 45.956 110.734 45.9365 110.665 45.9072C110.592 45.8779 110.489 45.8437 110.362 45.7997C110.229 45.7557 110.048 45.7069 109.818 45.6483C108.51 45.3893 107.603 45.0083 107.094 44.5002C106.584 43.9921 106.329 43.1812 106.329 42.0576C106.329 40.934 106.501 39.7077 106.849 38.4669C107.197 37.226 107.672 36.0291 108.279 34.8762C108.887 33.7232 109.612 32.6485 110.45 31.6519C111.288 30.6553 112.199 29.815 113.184 29.1213V23.5814C113.037 24.1285 112.865 24.7636 112.664 25.4866C112.464 26.2097 112.209 26.8838 111.905 27.5189C111.601 28.154 111.248 28.6865 110.842 29.1213C110.435 29.5561 109.96 29.771 109.411 29.771C108.921 29.771 108.382 29.5952 107.804 29.2532C107.226 28.9063 106.702 28.5595 106.241 28.2175C105.893 27.9293 105.619 27.4749 105.418 26.8545C105.217 26.2341 105.065 25.5794 104.962 24.8857C104.859 24.192 104.796 23.5276 104.766 22.8925C104.737 22.2574 104.722 21.7982 104.722 21.51C104.722 20.3864 104.737 19.209 104.766 17.9828C104.796 16.7566 104.869 15.6232 104.987 14.5875C105.104 13.547 105.281 12.692 105.516 12.013C105.751 11.3339 106.06 10.9968 106.437 10.9968C106.555 10.9968 106.79 11.0261 107.138 11.0848C107.491 11.1434 107.853 11.2362 108.235 11.3681C108.617 11.5 108.946 11.671 109.235 11.886C109.524 12.1009 109.671 12.3696 109.671 12.6871C109.671 12.7751 109.632 12.8386 109.563 12.8826C109.49 12.9265 109.426 12.9754 109.367 13.034C109.196 13.1512 109.034 13.376 108.892 13.7033C108.745 14.0355 108.622 14.5094 108.524 15.1298C108.421 15.7502 108.343 16.5563 108.284 17.5529C108.225 18.5495 108.196 19.7659 108.196 21.212C108.196 23.3762 108.274 24.9199 108.436 25.8433C108.593 26.7666 108.921 27.2307 109.411 27.2307C109.93 27.2307 110.401 26.8399 110.822 26.0631C111.244 25.2863 111.626 24.2604 111.974 22.9902C112.321 21.7201 112.64 20.2789 112.929 18.6619C113.218 17.0448 113.478 15.418 113.708 13.7717C113.997 13.7717 114.32 13.7863 114.683 13.8156C115.046 13.845 115.393 13.9036 115.727 13.9915C116.06 14.0795 116.339 14.1869 116.574 14.3139C116.804 14.4458 116.922 14.6217 116.922 14.8562C116.922 14.9979 116.834 15.1005 116.662 15.1591V27.9684C116.981 27.9977 117.285 28.0612 117.574 28.1638C117.863 28.2664 118.01 28.5057 118.01 28.877L118 28.8624ZM113.184 30.9826C112.488 31.5297 111.866 32.2381 111.317 33.1028C110.768 33.9675 110.298 34.8811 109.906 35.8484C109.514 36.8156 109.22 37.7732 109.014 38.7258C108.813 39.6784 108.71 40.4992 108.71 41.1929C108.71 41.3345 108.715 41.5739 108.73 41.9061C108.745 42.2383 108.808 42.5608 108.926 42.8783C109.044 43.1958 109.21 43.4792 109.426 43.7235C109.641 43.9677 109.97 44.0899 110.401 44.0899C111.038 44.0899 111.538 43.7528 111.9 43.0737C112.263 42.3947 112.537 41.6032 112.723 40.6946C112.909 39.7859 113.032 38.8772 113.091 37.9686C113.149 37.0599 113.179 36.3906 113.179 35.9558V30.9777L113.184 30.9826Z" fill="#231F21"/>
</g>
<defs>
<clipPath id="clip0_118_60">
<rect width="118" height="46" fill="white"/>
</clipPath>
</defs>
</svg>
