<svg width="31" height="27" viewBox="0 0 31 27" xmlns="http://www.w3.org/2000/svg">
<path fill-rule="evenodd" clip-rule="evenodd" d="M11.582 2C8.13025 2 5.33203 4.79822 5.33203 8.25V16.5C5.33203 17.0523 4.88432 17.5 4.33203 17.5C3.77975 17.5 3.33203 17.0523 3.33203 16.5V8.25C3.33203 3.69365 7.02568 0 11.582 0C16.1384 0 19.832 3.69365 19.832 8.25V16.5C19.832 17.0523 19.3843 17.5 18.832 17.5C18.2797 17.5 17.832 17.0523 17.832 16.5V8.25C17.832 4.79822 15.0338 2 11.582 2Z" />
<path fill-rule="evenodd" clip-rule="evenodd" d="M8.64579 14.4188C8.9668 14.8683 8.86271 15.4928 8.41329 15.8138L5.54158 17.865C4.80135 18.3938 3.79756 18.3564 3.09873 17.774L0.691872 15.7683C0.267595 15.4147 0.210271 14.7842 0.563835 14.3599C0.917399 13.9356 1.54796 13.8783 1.97224 14.2319L4.3791 16.2376L7.25082 14.1863C7.70023 13.8653 8.32478 13.9694 8.64579 14.4188Z" />
<path fill-rule="evenodd" clip-rule="evenodd" d="M16.6923 24.4287C20.8073 26.1314 25.332 23.1069 25.332 18.6536L25.332 13.9998C25.332 13.4475 25.7797 12.9998 26.332 12.9998C26.8843 12.9998 27.332 13.4475 27.332 13.9998L27.332 18.6536C27.332 24.532 21.3593 28.5243 15.9276 26.2767C12.8434 25.0005 10.832 21.9915 10.832 18.6536L10.832 6.99979C10.832 6.4475 11.2797 5.99979 11.832 5.99979C12.3843 5.99979 12.832 6.4475 12.832 6.99979L12.832 18.6536C12.832 21.1823 14.3558 23.4619 16.6923 24.4287Z" />
<path fill-rule="evenodd" clip-rule="evenodd" d="M22.0183 16.0812C21.6973 15.6317 21.8014 15.0072 22.2508 14.6862L25.1225 12.635C25.8627 12.1062 26.8665 12.1436 27.5653 12.726L29.9722 14.7317C30.3965 15.0853 30.4538 15.7158 30.1002 16.1401C29.7467 16.5644 29.1161 16.6217 28.6918 16.2681L26.285 14.2624L23.4132 16.3137C22.9638 16.6347 22.3393 16.5306 22.0183 16.0812Z" />
</svg>
