<svg width="30" height="30" viewBox="0 0 30 30" xmlns="http://www.w3.org/2000/svg">
<path fill-rule="evenodd" clip-rule="evenodd" d="M17 2H13V28H17V2ZM13 0C11.8954 0 11 0.89543 11 2V28C11 29.1046 11.8954 30 13 30H17C18.1046 30 19 29.1046 19 28V2C19 0.895431 18.1046 0 17 0H13Z" />
<path fill-rule="evenodd" clip-rule="evenodd" d="M28 17L28 13L2 13L2 17L28 17ZM30 13C30 11.8954 29.1046 11 28 11L2 11C0.895432 11 -3.91405e-08 11.8954 -8.74228e-08 13L-2.62268e-07 17C-3.10551e-07 18.1046 0.895429 19 2 19L28 19C29.1046 19 30 18.1046 30 17L30 13Z" />
<path fill-rule="evenodd" clip-rule="evenodd" d="M25.8196 7.22228L22.9912 4.39386L4.60643 22.7786L7.43486 25.6071L25.8196 7.22228ZM24.4054 2.97964C23.6244 2.19859 22.358 2.19859 21.577 2.97964L3.19222 21.3644C2.41117 22.1455 2.41117 23.4118 3.19222 24.1928L6.02065 27.0213C6.8017 27.8023 8.06803 27.8023 8.84908 27.0213L27.2339 8.6365C28.0149 7.85545 28.0149 6.58912 27.2339 5.80807L24.4054 2.97964Z" />
<path fill-rule="evenodd" clip-rule="evenodd" d="M22.9916 25.6067L25.82 22.7783L7.43524 4.39354L4.60681 7.22197L22.9916 25.6067ZM27.2342 24.1925C28.0153 23.4115 28.0153 22.1452 27.2342 21.3641L8.84945 2.97933C8.0684 2.19828 6.80207 2.19828 6.02102 2.97933L3.1926 5.80776C2.41155 6.5888 2.41155 7.85513 3.1926 8.63618L21.5774 27.021C22.3584 27.802 23.6247 27.802 24.4058 27.021L27.2342 24.1925Z" />
<path d="M23 15C23 19.4183 19.4183 23 15 23C10.5817 23 7 19.4183 7 15C7 10.5817 10.5817 7 15 7C19.4183 7 23 10.5817 23 15Z" fill="white"/>
<path fill-rule="evenodd" clip-rule="evenodd" d="M15 23C19.4183 23 23 19.4183 23 15C23 10.5817 19.4183 7 15 7C10.5817 7 7 10.5817 7 15C7 19.4183 10.5817 23 15 23ZM15 25C20.5228 25 25 20.5228 25 15C25 9.47715 20.5228 5 15 5C9.47715 5 5 9.47715 5 15C5 20.5228 9.47715 25 15 25Z" />
<path d="M19.332 15C19.332 17.2091 17.5412 19 15.332 19C13.1229 19 11.332 17.2091 11.332 15C11.332 12.7909 13.1229 11 15.332 11C17.5412 11 19.332 12.7909 19.332 15Z" fill="white"/>
<path fill-rule="evenodd" clip-rule="evenodd" d="M15 17C16.1046 17 17 16.1046 17 15C17 13.8954 16.1046 13 15 13C13.8954 13 13 13.8954 13 15C13 16.1046 13.8954 17 15 17ZM15 19C17.2091 19 19 17.2091 19 15C19 12.7909 17.2091 11 15 11C12.7909 11 11 12.7909 11 15C11 17.2091 12.7909 19 15 19Z" />
</svg>
